# xmcd
# Track frame offsets:
# 150
# 18279
# 35612
# 53129
# 67147
# 86087
# 101502
# 124563
# 140038
# 157494
# 173631
# 191787
#
# Disc length: 2792 seconds
# Revision: 0
# Processed by: cddbd v1.5.1PL0 Copyright (c) Steve Scherf et al.
# Submitted via: VisiTrax 2.9.10.220 - For more info visit www.synapsa.com
#
DISCID=ad0ae60c
DTITLE=Tamra Rosanes - Over the ocean
DYEAR=2004
DGENRE=Country
TTITLE0=Where have all the flowers gone
TTITLE1=There is a tavern in the town
TTITLE2=My Bonnie lies over the ocean
TTITLE3=Old folks at home (Swanee river)
TTITLE4=Home on the range
TTITLE5=Red river valley
TTITLE6=Greensleeves
TTITLE7=The Midnight Special
TTITLE8=Shenandoah
TTITLE9=Last thing on my mind
TTITLE10=Down in the valley
TTITLE11=Goodnight Irene
EXTD=CMC C00015-2
EXTT0=
EXTT1=
EXTT2=
EXTT3=
EXTT4=
EXTT5=
EXTT6=
EXTT7=
EXTT8=
EXTT9=
EXTT10=
EXTT11=
PLAYORDER=
